<mxfile host="65bd71144e">
    <diagram id="BWV-KbYzjG2PYMJsIZb8" name="ページ1">
        <mxGraphModel dx="616" dy="594" grid="1" gridSize="10" guides="1" tooltips="1" connect="1" arrows="1" fold="1" page="1" pageScale="1" pageWidth="827" pageHeight="1169" math="0" shadow="0">
            <root>
                <mxCell id="0"/>
                <mxCell id="1" parent="0"/>
                <mxCell id="2" value="domain" style="shape=folder;fontStyle=1;spacingTop=10;tabWidth=40;tabHeight=14;tabPosition=left;html=1;fillColor=none;verticalAlign=top;" parent="1" vertex="1">
                    <mxGeometry x="400" y="80" width="720" height="360" as="geometry"/>
                </mxCell>
                <mxCell id="3" value="post" style="swimlane;fontStyle=1;align=center;verticalAlign=top;childLayout=stackLayout;horizontal=1;startSize=26;horizontalStack=0;resizeParent=1;resizeParentMax=0;resizeLast=0;collapsible=1;marginBottom=0;" parent="1" vertex="1">
                    <mxGeometry x="480" y="190" width="160" height="138" as="geometry"/>
                </mxCell>
                <mxCell id="4" value="userId" style="text;strokeColor=none;fillColor=none;align=left;verticalAlign=top;spacingLeft=4;spacingRight=4;overflow=hidden;rotatable=0;points=[[0,0.5],[1,0.5]];portConstraint=eastwest;" parent="3" vertex="1">
                    <mxGeometry y="26" width="160" height="26" as="geometry"/>
                </mxCell>
                <mxCell id="5" value="sentence" style="text;strokeColor=none;fillColor=none;align=left;verticalAlign=top;spacingLeft=4;spacingRight=4;overflow=hidden;rotatable=0;points=[[0,0.5],[1,0.5]];portConstraint=eastwest;" parent="3" vertex="1">
                    <mxGeometry y="52" width="160" height="26" as="geometry"/>
                </mxCell>
                <mxCell id="6" value="created_at" style="text;strokeColor=none;fillColor=none;align=left;verticalAlign=top;spacingLeft=4;spacingRight=4;overflow=hidden;rotatable=0;points=[[0,0.5],[1,0.5]];portConstraint=eastwest;" parent="3" vertex="1">
                    <mxGeometry y="78" width="160" height="26" as="geometry"/>
                </mxCell>
                <mxCell id="7" value="postId" style="text;strokeColor=none;fillColor=none;align=left;verticalAlign=top;spacingLeft=4;spacingRight=4;overflow=hidden;rotatable=0;points=[[0,0.5],[1,0.5]];portConstraint=eastwest;" parent="3" vertex="1">
                    <mxGeometry y="104" width="160" height="26" as="geometry"/>
                </mxCell>
                <mxCell id="9" value="" style="line;strokeWidth=1;fillColor=none;align=left;verticalAlign=middle;spacingTop=-1;spacingLeft=3;spacingRight=3;rotatable=0;labelPosition=right;points=[];portConstraint=eastwest;" parent="3" vertex="1">
                    <mxGeometry y="130" width="160" height="8" as="geometry"/>
                </mxCell>
                <mxCell id="16" value="timeline" style="swimlane;fontStyle=1;align=center;verticalAlign=top;childLayout=stackLayout;horizontal=1;startSize=26;horizontalStack=0;resizeParent=1;resizeParentMax=0;resizeLast=0;collapsible=1;marginBottom=0;" parent="1" vertex="1">
                    <mxGeometry x="760" y="217" width="160" height="60" as="geometry"/>
                </mxCell>
                <mxCell id="43" value="" style="endArrow=open;endFill=1;endSize=12;html=1;" parent="16" edge="1">
                    <mxGeometry width="160" relative="1" as="geometry">
                        <mxPoint x="-120" y="43.26999999999998" as="sourcePoint"/>
                        <mxPoint y="43" as="targetPoint"/>
                    </mxGeometry>
                </mxCell>
                <mxCell id="49" value="posts" style="text;strokeColor=none;fillColor=none;align=left;verticalAlign=top;spacingLeft=4;spacingRight=4;overflow=hidden;rotatable=0;points=[[0,0.5],[1,0.5]];portConstraint=eastwest;" parent="16" vertex="1">
                    <mxGeometry y="26" width="160" height="26" as="geometry"/>
                </mxCell>
                <mxCell id="18" value="" style="line;strokeWidth=1;fillColor=none;align=left;verticalAlign=middle;spacingTop=-1;spacingLeft=3;spacingRight=3;rotatable=0;labelPosition=right;points=[];portConstraint=eastwest;" parent="16" vertex="1">
                    <mxGeometry y="52" width="160" height="8" as="geometry"/>
                </mxCell>
                <mxCell id="27" value="application" style="shape=folder;fontStyle=1;spacingTop=10;tabWidth=40;tabHeight=14;tabPosition=left;html=1;fillColor=none;verticalAlign=top;" parent="1" vertex="1">
                    <mxGeometry x="40" y="80" width="280" height="360" as="geometry"/>
                </mxCell>
                <mxCell id="28" value="postTimelineUseCase" style="swimlane;fontStyle=1;align=center;verticalAlign=top;childLayout=stackLayout;horizontal=1;startSize=26;horizontalStack=0;resizeParent=1;resizeParentMax=0;resizeLast=0;collapsible=1;marginBottom=0;fillColor=none;" parent="1" vertex="1">
                    <mxGeometry x="80" y="238" width="200" height="60" as="geometry"/>
                </mxCell>
                <mxCell id="29" value="" style="line;strokeWidth=1;fillColor=none;align=left;verticalAlign=middle;spacingTop=-1;spacingLeft=3;spacingRight=3;rotatable=0;labelPosition=right;points=[];portConstraint=eastwest;" parent="28" vertex="1">
                    <mxGeometry y="26" width="200" height="8" as="geometry"/>
                </mxCell>
                <mxCell id="30" value="run(content,userid)" style="text;strokeColor=none;fillColor=none;align=left;verticalAlign=top;spacingLeft=4;spacingRight=4;overflow=hidden;rotatable=0;points=[[0,0.5],[1,0.5]];portConstraint=eastwest;" parent="28" vertex="1">
                    <mxGeometry y="34" width="200" height="26" as="geometry"/>
                </mxCell>
                <mxCell id="34" value="投稿のバリデーションを行う(入力値が空でないか、とか文字数制限とか)&lt;br&gt;&lt;br&gt;&lt;p&gt;&lt;strong&gt;具体的なチェック内容&lt;/strong&gt;:&lt;/p&gt;&lt;ul&gt;&lt;li&gt;必須フィールド確認。&lt;/li&gt;&lt;li&gt;文字数やサイズ制限。&lt;/li&gt;&lt;li&gt;禁止ワード、不適切な内容。&lt;/li&gt;&lt;li&gt;特定フォーマットの検証。&lt;/li&gt;&lt;li&gt;投稿可能条件や投稿内容の重複防止&lt;/li&gt;&lt;/ul&gt;" style="shape=note;whiteSpace=wrap;html=1;backgroundOutline=1;darkOpacity=0.05;fillColor=#ffe6cc;strokeColor=#d79b00;align=left;" parent="1" vertex="1">
                    <mxGeometry x="410" y="470" width="350" height="210" as="geometry"/>
                </mxCell>
                <mxCell id="38" value="rurの内部では、以下を実行&lt;br&gt;・投稿を作成する&lt;br&gt;・タイムラインへ保存する" style="shape=note;whiteSpace=wrap;html=1;backgroundOutline=1;darkOpacity=0.05;fillColor=#ffe6cc;strokeColor=#d79b00;align=left;" parent="1" vertex="1">
                    <mxGeometry x="160" y="480" width="180" height="80" as="geometry"/>
                </mxCell>
                <mxCell id="39" value="" style="endArrow=none;dashed=1;html=1;" parent="1" source="38" target="28" edge="1">
                    <mxGeometry width="50" height="50" relative="1" as="geometry">
                        <mxPoint x="60" y="400" as="sourcePoint"/>
                        <mxPoint x="259.4011976047907" y="446" as="targetPoint"/>
                    </mxGeometry>
                </mxCell>
                <mxCell id="40" value="" style="endArrow=open;endFill=1;endSize=12;html=1;entryX=-0.011;entryY=0.972;entryDx=0;entryDy=0;entryPerimeter=0;" parent="1" target="5" edge="1">
                    <mxGeometry width="160" relative="1" as="geometry">
                        <mxPoint x="280" y="268" as="sourcePoint"/>
                        <mxPoint x="440" y="268" as="targetPoint"/>
                    </mxGeometry>
                </mxCell>
                <mxCell id="44" value="ユーザはdomainでは不要&lt;br&gt;理由：ユーザによって権限変えるとかではないので(無料会員と有料会員で投稿に制限をかけるとか)" style="shape=note;whiteSpace=wrap;html=1;backgroundOutline=1;darkOpacity=0.05;fillColor=#ffe6cc;strokeColor=#d79b00;align=left;" parent="1" vertex="1">
                    <mxGeometry x="460" y="10" width="160" height="100" as="geometry"/>
                </mxCell>
                <mxCell id="50" value="" style="endArrow=none;dashed=1;html=1;entryX=0.5;entryY=1;entryDx=0;entryDy=0;" parent="1" source="34" target="3" edge="1">
                    <mxGeometry width="50" height="50" relative="1" as="geometry">
                        <mxPoint x="248.8888888888889" y="489.9999999999999" as="sourcePoint"/>
                        <mxPoint x="556.4799999999998" y="359.096" as="targetPoint"/>
                    </mxGeometry>
                </mxCell>
                <mxCell id="51" value="&lt;p&gt;タイムラインドメインでは、以下のようなチェックを行います&lt;/p&gt;&lt;li&gt;&lt;strong style=&quot;background-color: initial;&quot;&gt;投稿の重複防止&lt;/strong&gt;&lt;span style=&quot;background-color: initial;&quot;&gt;。&lt;/span&gt;&lt;br&gt;&lt;/li&gt;&lt;li&gt;&lt;strong&gt;投稿の順序保証&lt;/strong&gt;（例: 時系列順）。&lt;/li&gt;&lt;li&gt;&lt;strong&gt;投稿のフィルタリング&lt;/strong&gt;（非公開や削除済み投稿の排除）。&lt;/li&gt;&lt;li&gt;&lt;strong&gt;投稿の整合性チェック&lt;/strong&gt;（必要に応じて、タイムライン独自の条件を適用）。&lt;/li&gt;" style="shape=note;whiteSpace=wrap;html=1;backgroundOutline=1;darkOpacity=0.05;fillColor=#ffe6cc;strokeColor=#d79b00;align=left;" parent="1" vertex="1">
                    <mxGeometry x="820" y="470" width="350" height="210" as="geometry"/>
                </mxCell>
                <mxCell id="52" value="" style="endArrow=none;dashed=1;html=1;entryX=0.5;entryY=1;entryDx=0;entryDy=0;exitX=0.5;exitY=0;exitDx=0;exitDy=0;exitPerimeter=0;" parent="1" source="51" edge="1">
                    <mxGeometry width="50" height="50" relative="1" as="geometry">
                        <mxPoint x="854.3724696356276" y="444.9999999999999" as="sourcePoint"/>
                        <mxPoint x="840" y="303.0000000000001" as="targetPoint"/>
                    </mxGeometry>
                </mxCell>
            </root>
        </mxGraphModel>
    </diagram>
</mxfile>